<?xml version="1.0" encoding="UTF-8" standalone="no"?>
<!DOCTYPE svg PUBLIC "-//W3C//DTD SVG 1.1//EN"
 "http://www.w3.org/Graphics/SVG/1.1/DTD/svg11.dtd">
<!-- Generated by graphviz version 2.40.1 (20161225.0304)
 -->
<!-- Title: dependencies Pages: 1 -->
<svg width="1375pt" height="284pt"
 viewBox="0.00 0.00 1375.00 284.00" xmlns="http://www.w3.org/2000/svg" xmlns:xlink="http://www.w3.org/1999/xlink">
<g id="graph0" class="graph" transform="scale(1 1) rotate(0) translate(4 280)">
<title>dependencies</title>
<polygon fill="#ffffff" stroke="transparent" points="-4,4 -4,-280 1371,-280 1371,4 -4,4"/>
<text text-anchor="start" x="662.5091" y="-42.4" font-family="sans-serif" font-weight="bold" font-size="14.00" fill="#000000">Legend</text>
<polygon fill="#ffffb3" stroke="transparent" points="449.5,-10 449.5,-30 469.5,-30 469.5,-10 449.5,-10"/>
<text text-anchor="start" x="473.129" y="-15.4" font-family="sans-serif" font-size="14.00" fill="#000000"> &#160;Declarations</text>
<polygon fill="#8dd3c7" stroke="transparent" points="562.5,-10 562.5,-30 582.5,-30 582.5,-10 562.5,-10"/>
<text text-anchor="start" x="586.2251" y="-15.4" font-family="sans-serif" font-size="14.00" fill="#000000"> &#160;Module</text>
<polygon fill="#80b1d3" stroke="transparent" points="648.5,-10 648.5,-30 668.5,-30 668.5,-10 648.5,-10"/>
<text text-anchor="start" x="672.2812" y="-15.4" font-family="sans-serif" font-size="14.00" fill="#000000"> &#160;Bootstrap</text>
<polygon fill="#fdb462" stroke="transparent" points="745.5,-10 745.5,-30 765.5,-30 765.5,-10 745.5,-10"/>
<text text-anchor="start" x="769.1732" y="-15.4" font-family="sans-serif" font-size="14.00" fill="#000000"> &#160;Providers</text>
<polygon fill="#fb8072" stroke="transparent" points="841.5,-10 841.5,-30 861.5,-30 861.5,-10 841.5,-10"/>
<text text-anchor="start" x="865.2258" y="-15.4" font-family="sans-serif" font-size="14.00" fill="#000000"> &#160;Exports</text>
<g id="clust1" class="cluster">
<title>cluster_AppModule</title>
<polygon fill="none" stroke="#000000" stroke-dasharray="1,5" points="8,-70 8,-268 1359,-268 1359,-70 8,-70"/>
</g>
<g id="clust2" class="cluster">
<title>cluster_AppModule_declarations</title>
<polygon fill="none" stroke="#000000" points="306,-78 306,-130 1351,-130 1351,-78 306,-78"/>
</g>
<g id="clust10" class="cluster">
<title>cluster_AppModule_imports</title>
<polygon fill="none" stroke="#000000" points="154,-78 154,-130 298,-130 298,-78 154,-78"/>
</g>
<g id="clust12" class="cluster">
<title>cluster_AppModule_bootstrap</title>
<polygon fill="none" stroke="#000000" points="640,-208 640,-260 764,-260 764,-208 640,-208"/>
</g>
<g id="clust13" class="cluster">
<title>cluster_AppModule_providers</title>
<polygon fill="none" stroke="#000000" points="16,-78 16,-130 146,-130 146,-78 16,-78"/>
</g>
<!-- AppComponent -->
<g id="node1" class="node">
<title>AppComponent</title>
<polygon fill="#ffffb3" stroke="#000000" points="1342.9399,-122 1237.0601,-122 1237.0601,-86 1342.9399,-86 1342.9399,-122"/>
<text text-anchor="middle" x="1290" y="-99.8" font-family="Times,serif" font-size="14.00" fill="#000000">AppComponent</text>
</g>
<!-- AppModule -->
<g id="node8" class="node">
<title>AppModule</title>
<polygon fill="#8dd3c7" stroke="#000000" points="743.6571,-187 740.6571,-191 719.6571,-191 716.6571,-187 660.3429,-187 660.3429,-151 743.6571,-151 743.6571,-187"/>
<text text-anchor="middle" x="702" y="-164.8" font-family="Times,serif" font-size="14.00" fill="#000000">AppModule</text>
</g>
<!-- AppComponent&#45;&gt;AppModule -->
<g id="edge1" class="edge">
<title>AppComponent&#45;&gt;AppModule</title>
<path fill="none" stroke="#000000" d="M1290,-122.0109C1290,-144.4852 1290,-180 1290,-180 1290,-180 753.8161,-180 753.8161,-180"/>
<polygon fill="#000000" stroke="#000000" points="753.8162,-176.5001 743.8161,-180 753.8161,-183.5001 753.8162,-176.5001"/>
</g>
<!-- DashboardComponent -->
<g id="node2" class="node">
<title>DashboardComponent</title>
<polygon fill="#ffffb3" stroke="#000000" points="1218.9734,-122 1077.0266,-122 1077.0266,-86 1218.9734,-86 1218.9734,-122"/>
<text text-anchor="middle" x="1148" y="-99.8" font-family="Times,serif" font-size="14.00" fill="#000000">DashboardComponent</text>
</g>
<!-- DashboardComponent&#45;&gt;AppModule -->
<g id="edge2" class="edge">
<title>DashboardComponent&#45;&gt;AppModule</title>
<path fill="none" stroke="#000000" d="M1148,-122.1289C1148,-142.5724 1148,-173 1148,-173 1148,-173 753.9586,-173 753.9586,-173"/>
<polygon fill="#000000" stroke="#000000" points="753.9586,-169.5001 743.9586,-173 753.9586,-176.5001 753.9586,-169.5001"/>
</g>
<!-- GameboardComponent -->
<g id="node3" class="node">
<title>GameboardComponent</title>
<polygon fill="#ffffb3" stroke="#000000" points="1059.1345,-122 912.8655,-122 912.8655,-86 1059.1345,-86 1059.1345,-122"/>
<text text-anchor="middle" x="986" y="-99.8" font-family="Times,serif" font-size="14.00" fill="#000000">GameboardComponent</text>
</g>
<!-- GameboardComponent&#45;&gt;AppModule -->
<g id="edge3" class="edge">
<title>GameboardComponent&#45;&gt;AppModule</title>
<path fill="none" stroke="#000000" d="M986,-122.2667C986,-140.5552 986,-166 986,-166 986,-166 753.9052,-166 753.9052,-166"/>
<polygon fill="#000000" stroke="#000000" points="753.9052,-162.5001 743.9052,-166 753.9051,-169.5001 753.9052,-162.5001"/>
</g>
<!-- LobbyComponent -->
<g id="node4" class="node">
<title>LobbyComponent</title>
<polygon fill="#ffffb3" stroke="#000000" points="894.8851,-122 777.1149,-122 777.1149,-86 894.8851,-86 894.8851,-122"/>
<text text-anchor="middle" x="836" y="-99.8" font-family="Times,serif" font-size="14.00" fill="#000000">LobbyComponent</text>
</g>
<!-- LobbyComponent&#45;&gt;AppModule -->
<g id="edge4" class="edge">
<title>LobbyComponent&#45;&gt;AppModule</title>
<path fill="none" stroke="#000000" d="M836,-122.0091C836,-138.0494 836,-159 836,-159 836,-159 753.6639,-159 753.6639,-159"/>
<polygon fill="#000000" stroke="#000000" points="753.6639,-155.5001 743.6639,-159 753.6639,-162.5001 753.6639,-155.5001"/>
</g>
<!-- LoginComponent -->
<g id="node5" class="node">
<title>LoginComponent</title>
<polygon fill="#ffffb3" stroke="#000000" points="759.2758,-122 644.7242,-122 644.7242,-86 759.2758,-86 759.2758,-122"/>
<text text-anchor="middle" x="702" y="-99.8" font-family="Times,serif" font-size="14.00" fill="#000000">LoginComponent</text>
</g>
<!-- LoginComponent&#45;&gt;AppModule -->
<g id="edge5" class="edge">
<title>LoginComponent&#45;&gt;AppModule</title>
<path fill="none" stroke="#000000" d="M702,-122.1061C702,-122.1061 702,-140.991 702,-140.991"/>
<polygon fill="#000000" stroke="#000000" points="698.5001,-140.9909 702,-150.991 705.5001,-140.991 698.5001,-140.9909"/>
</g>
<!-- MainMenuComponent -->
<g id="node6" class="node">
<title>MainMenuComponent</title>
<polygon fill="#ffffb3" stroke="#000000" points="626.5421,-122 483.4579,-122 483.4579,-86 626.5421,-86 626.5421,-122"/>
<text text-anchor="middle" x="555" y="-99.8" font-family="Times,serif" font-size="14.00" fill="#000000">MainMenuComponent</text>
</g>
<!-- MainMenuComponent&#45;&gt;AppModule -->
<g id="edge6" class="edge">
<title>MainMenuComponent&#45;&gt;AppModule</title>
<path fill="none" stroke="#000000" d="M555,-122.0091C555,-138.0494 555,-159 555,-159 555,-159 650.2689,-159 650.2689,-159"/>
<polygon fill="#000000" stroke="#000000" points="650.2689,-162.5001 660.2689,-159 650.2689,-155.5001 650.2689,-162.5001"/>
</g>
<!-- ServerProxyComponent -->
<g id="node7" class="node">
<title>ServerProxyComponent</title>
<polygon fill="#ffffb3" stroke="#000000" points="465.8089,-122 314.1911,-122 314.1911,-86 465.8089,-86 465.8089,-122"/>
<text text-anchor="middle" x="390" y="-99.8" font-family="Times,serif" font-size="14.00" fill="#000000">ServerProxyComponent</text>
</g>
<!-- ServerProxyComponent&#45;&gt;AppModule -->
<g id="edge7" class="edge">
<title>ServerProxyComponent&#45;&gt;AppModule</title>
<path fill="none" stroke="#000000" d="M390,-122.2667C390,-140.5552 390,-166 390,-166 390,-166 650.246,-166 650.246,-166"/>
<polygon fill="#000000" stroke="#000000" points="650.2461,-169.5001 660.246,-166 650.246,-162.5001 650.2461,-169.5001"/>
</g>
<!-- AppComponent  -->
<g id="node10" class="node">
<title>AppComponent </title>
<polygon fill="#80b1d3" stroke="#000000" points="756.439,-252 647.561,-252 647.561,-216 756.439,-216 756.439,-252"/>
<text text-anchor="middle" x="702" y="-229.8" font-family="Times,serif" font-size="14.00" fill="#000000">AppComponent </text>
</g>
<!-- AppModule&#45;&gt;AppComponent  -->
<g id="edge9" class="edge">
<title>AppModule&#45;&gt;AppComponent </title>
<path fill="none" stroke="#000000" stroke-dasharray="1,5" d="M702,-187.1061C702,-187.1061 702,-205.991 702,-205.991"/>
<polygon fill="#000000" stroke="#000000" points="698.5001,-205.9909 702,-215.991 705.5001,-205.991 698.5001,-205.9909"/>
</g>
<!-- AppRoutingModule -->
<g id="node9" class="node">
<title>AppRoutingModule</title>
<polygon fill="#8dd3c7" stroke="#000000" points="290.2744,-122 287.2744,-126 266.2744,-126 263.2744,-122 161.7256,-122 161.7256,-86 290.2744,-86 290.2744,-122"/>
<text text-anchor="middle" x="226" y="-99.8" font-family="Times,serif" font-size="14.00" fill="#000000">AppRoutingModule</text>
</g>
<!-- AppRoutingModule&#45;&gt;AppModule -->
<g id="edge8" class="edge">
<title>AppRoutingModule&#45;&gt;AppModule</title>
<path fill="none" stroke="#000000" d="M226,-122.1289C226,-142.5724 226,-173 226,-173 226,-173 650.1754,-173 650.1754,-173"/>
<polygon fill="#000000" stroke="#000000" points="650.1754,-176.5001 660.1754,-173 650.1753,-169.5001 650.1754,-176.5001"/>
</g>
<!-- FacadeImpl -->
<g id="node11" class="node">
<title>FacadeImpl</title>
<ellipse fill="#fdb462" stroke="#000000" cx="81" cy="-104" rx="56.7387" ry="18"/>
<text text-anchor="middle" x="81" y="-99.8" font-family="Times,serif" font-size="14.00" fill="#000000">FacadeImpl</text>
</g>
<!-- FacadeImpl&#45;&gt;AppModule -->
<g id="edge10" class="edge">
<title>FacadeImpl&#45;&gt;AppModule</title>
<path fill="none" stroke="#000000" d="M81,-122.0109C81,-144.4852 81,-180 81,-180 81,-180 650.2902,-180 650.2902,-180"/>
<polygon fill="#000000" stroke="#000000" points="650.2902,-183.5001 660.2902,-180 650.2901,-176.5001 650.2902,-183.5001"/>
</g>
</g>
</svg>
